<svg xmlns="http://www.w3.org/2000/svg" width="64.4" height="69.385" viewBox="0 0 64.4 69.385"><defs><style>.a{fill:#707070;}</style></defs><path class="a" d="M36.734,45.454a3.83,3.83,0,0,0-1.18-.262A3.185,3.185,0,0,0,32.8,47.028a2.594,2.594,0,0,0-.262,1.443,3.149,3.149,0,0,0,1.574,2.623,3.83,3.83,0,0,0,1.18.262,3.185,3.185,0,0,0,2.754-1.836,2.594,2.594,0,0,0,.262-1.443A2.835,2.835,0,0,0,36.734,45.454ZM53.785,6.105A17.333,17.333,0,0,0,47.621,4.4v.131a6.584,6.584,0,0,1,.262,1.574,6.5,6.5,0,0,1-1.049,3.41,6.338,6.338,0,0,1-3.673,3.673,6.583,6.583,0,0,1-1.574.262,2.232,2.232,0,0,1-.918-.131A233.165,233.165,0,0,0,27.947,36.4c-1.049,2.23-1.967,4.46-2.886,6.558-.262-.656-1.049-2.1-1.18-2.361-2.361-5.246-1.705-4.2-3.8-9.444-.262-.525-4.591-2.623-5.9-1.443a1.375,1.375,0,0,0-.131,1.574c4.066,7.083,6.165,11.936,10.624,18.887a2.266,2.266,0,0,0,3.148.262l.393-.393,1.312-2.492C37.259,34.174,44.6,22.107,53.392,8.728c.131-.262,1.312-1.836.393-2.623Z" transform="translate(4.319 1.371)"/><path class="a" d="M9.575,10.8l.525.393.787,4.591,1.836-2.1.393.393L10.755,16.7l-.393-.393-.787-4.591-1.967,2.1-.393-.393L9.575,10.8ZM6.033,14.866,10.1,17.62,8.263,20.375l-.393-.393,1.443-2.23L8,16.965,6.689,18.932l-.525-.262L7.476,16.7l-1.443-.918-1.443,2.23-.262-.393,1.705-2.754Zm-3.8,7.083h2.23l.525-1.18-1.836-.787.262-.525L7.87,21.293,7.083,23a1.584,1.584,0,0,1-.918.918,1.437,1.437,0,0,1-1.049,0,1.183,1.183,0,0,1-.787-.787,1.182,1.182,0,0,1-.131-.656H1.967Zm4.328.787.525-1.18L5.509,20.9l-.525,1.18a.909.909,0,0,0,.393,1.312C5.9,23.654,6.3,23.26,6.558,22.736Zm-1.443,4.2-4.2-1.18.131-.656,4.2,1.18.393-1.443.525.131-.918,3.541-.525-.131.393-1.443ZM.393,28.9l4.853.656-.131.656L.262,29.556.393,28.9Zm3.935,3.541H2.754l-.131,2.23H2.1v-2.23H0v-.656l4.853.131-.131,3.148H4.328Zm-4.2,4.066,4.853-.525v.656l-4.853.525v-.656ZM.393,39l.656-.131,4.2,1.967-.656-2.754.525-.131.787,3.41-.656.131-4.2-1.967.656,2.754-.525.262L.393,39Zm1.312,5.247L6.3,42.541l.262.656L1.967,44.771Zm.918,2.623,4.459-2.23,1.443,2.886L8,47.788,6.82,45.427l-1.312.656,1.049,2.1-.525.262-1.049-2.1-1.574.787,1.18,2.361-.525.262Zm4.2,6.82L7.87,51.723l-.787-1.049-1.705,1.18-.393-.525,3.935-2.886,1.18,1.574a1.258,1.258,0,0,1,.393,1.312c0,.393-.262.656-.656.918a1.413,1.413,0,0,1-1.049.262c-.262,0-.393-.131-.656-.262l-1.18,2.1L6.82,53.69Zm2.886-3.41-.787-1.049L7.476,50.28l.787,1.049c.393.525.787.656,1.312.262S10.1,50.8,9.706,50.28Zm2.886,3.41L9.575,56.707l-.393-.393L12.2,53.3l-1.049-1.049.393-.393,2.492,2.492-.393.393L12.592,53.69Zm5.378,8.657a2.727,2.727,0,0,1-1.443-.131,2.333,2.333,0,0,1-.918-1.049,3.637,3.637,0,0,1,1.967-3.541,2.054,2.054,0,0,1,2.361,1.312,1.275,1.275,0,0,1-.131,1.18l-.525-.262a1.426,1.426,0,0,0,.131-.656c-.131-.262-.262-.656-.656-.787a2.232,2.232,0,0,0-.918-.131,2.574,2.574,0,0,0-1.18,1.18,2.366,2.366,0,0,0-.393,1.574c.131.262.262.656.656.787a1.152,1.152,0,0,0,.918.131,1.024,1.024,0,0,0,.525-.525l.525.262a1.673,1.673,0,0,1-.918.656Zm1.836,1.312,1.705-4.591,3.148,1.049-.131.525-2.492-.918-.525,1.443,2.23.787-.131.525-2.23-.787-.525,1.574,2.492.918-.131.525-3.41-1.049Zm7.739,2.1-.525-2.23-1.312-.262-.393,1.967-.656-.131.918-4.853,1.836.393a1.565,1.565,0,0,1,1.18.656.99.99,0,0,1,.131,1.049,1.328,1.328,0,0,1-.525.918.524.524,0,0,1-.525.262l.525,2.361-.656-.131Zm-.131-4.46L26.1,61.035l-.262,1.705L27.15,63a.856.856,0,0,0,1.18-.656c.131-.656-.393-.918-.918-1.049Zm4.328.393-.131,4.328h-.656l.131-4.328H29.643v-.525l3.541.131v.525Zm3.017,4.2-.393-4.853h.656l.393,4.853ZM37.25,61.3l.262,1.574,2.23-.525.131.525-2.23.525.393,2.1-.656.131L36.594,60.9l3.148-.656.131.525L37.25,61.3Zm5.115,3.148-1.574-4.591.656-.262,1.574,4.591Zm2.623-.918-2.1-4.46,2.886-1.443.262.525-2.361,1.18.656,1.312,2.1-1.049.262.525-2.1,1.049.787,1.574,2.361-1.18.262.525-3.017,1.443Zm-1.312-5.247-.393-.262.656-1.312.525.262-.787,1.312Zm11.018-1.967a1.994,1.994,0,0,1-1.967,1.836,3.818,3.818,0,0,1-2.754-3.017,1.821,1.821,0,0,1,.656-1.312A1.684,1.684,0,0,1,51.94,53.3a2.357,2.357,0,0,1,1.18.525l-.525.393a1,1,0,0,0-.656-.262,1.9,1.9,0,0,0-.918.262,1.191,1.191,0,0,0-.393.918,2.28,2.28,0,0,0,.787,1.443,2.4,2.4,0,0,0,1.312.918,1.9,1.9,0,0,0,.918-.262,1.191,1.191,0,0,0,.393-.918,1,1,0,0,0-.262-.656l.525-.393A1.489,1.489,0,0,1,54.694,56.313ZM56.531,55l-3.8-3.017,1.967-2.623.393.393-1.574,1.967,1.18.918L56.137,50.8l.525.393-1.443,1.836,1.312,1.049,1.705-2.1.393.393Zm4.459-6.689-2.23-.131-.656,1.18,1.836,1.049-.262.525L55.35,48.575l.918-1.705a1.5,1.5,0,0,1,1.049-.918,1.394,1.394,0,0,1,1.049.131,1.319,1.319,0,0,1,.656,1.443l2.361.131Zm-4.2-1.18-.656,1.18,1.574.787.656-1.18c.262-.525.262-1.049-.262-1.312A.958.958,0,0,0,56.793,47.132ZM58.5,43.066l4.066,1.443-.131.656-4.066-1.443-.525,1.312-.525-.131,1.18-3.279.525.131Zm4.984-1.574-4.722-1.18.131-.656,4.722,1.18Zm-3.673-3.8,1.574.131.262-2.23h.525l-.262,2.23,2.1.262v.656l-4.853-.525.393-3.148h.525Zm4.591-3.8H59.547V33.36H64.4Zm-.787-5.64a2.028,2.028,0,0,1,.393,2.623,2.79,2.79,0,0,1-1.967.918,3.04,3.04,0,0,1-2.1-.393,2.028,2.028,0,0,1-.393-2.623,1.8,1.8,0,0,1,1.049-.656l.131.656a.721.721,0,0,0-.656.393,1.249,1.249,0,0,0-.262.918.886.886,0,0,0,.525.787,2.258,2.258,0,0,0,1.574.262,2.725,2.725,0,0,0,1.574-.656,1.249,1.249,0,0,0,.262-.918.886.886,0,0,0-.525-.787.867.867,0,0,0-.787-.131l-.131-.656a1.525,1.525,0,0,1,1.312.262ZM62.7,23l-1.049.787.656,1.967h1.18l.131.656-5.246-.262-.131-.656,4.2-3.148L62.7,23Zm-3.673,2.623,2.623.131-.525-1.574Zm-1.574-3.935,3.935-1.836.262.525-3.935,1.836.656,1.312-.656.393-1.443-3.148.525-.262.656,1.18ZM57.842,15a1.91,1.91,0,0,1,1.18.787,1.821,1.821,0,0,1,.262,1.443,2.783,2.783,0,0,1-1.312,1.705,2.759,2.759,0,0,1-1.967.656,1.91,1.91,0,0,1-1.18-.787,1.821,1.821,0,0,1-.262-1.443A3.507,3.507,0,0,1,57.842,15Zm-2.754,2.361a1.945,1.945,0,0,0,.131.918,1.078,1.078,0,0,0,.787.525,3.241,3.241,0,0,0,2.623-1.836,1.152,1.152,0,0,0-.131-.918,1.078,1.078,0,0,0-.787-.525A3.442,3.442,0,0,0,55.088,17.358Z" transform="translate(0 3.366)"/><path class="a" d="M48.612,21.82a21.967,21.967,0,1,1-8.526-7.345,31.38,31.38,0,0,1,1.705-2.754A25.34,25.34,0,0,0,19.232,57.1,25.342,25.342,0,0,0,50.58,18.935L48.612,21.82Z" transform="translate(1.623 2.838)"/><path class="a" d="M13.291,15.084,12.5,13.51l1.574-8.263L9.487,7.87,8.7,6.427l6.558-3.541.787,1.574L14.34,12.592l4.722-2.623.787,1.443-6.558,3.673ZM20.9,11.149,19.062,1.574,25.882.262l.262,1.574L21.029,2.886l.393,2.23L25.882,4.2l.262,1.574-4.459.918.525,2.623,5.115-1.049.262,1.574L20.9,11.149Zm16-.525-1.836-.131-1.18-6.952L31,9.968l-1.836-.262L28.505,0h1.705l.525,6.952L33.49.656l1.443.131,1.18,6.82,2.23-6.558,1.574.393L36.9,10.624Zm7.607,2.623a3.991,3.991,0,0,1-3.017-.262,3.671,3.671,0,0,1-1.967-2.23,7.084,7.084,0,0,1,3.541-7.083,3.991,3.991,0,0,1,3.017.262,3.671,3.671,0,0,1,1.967,2.23A6.782,6.782,0,0,1,44.507,13.247Zm1.967-6.558A2.093,2.093,0,0,0,43.72,5.378a5.866,5.866,0,0,0-2.492,4.984A2.269,2.269,0,0,0,43.982,11.8a3.816,3.816,0,0,0,1.836-2.23,4.312,4.312,0,0,0,.656-2.886Z" transform="translate(2.711)"/></svg>